<?xml version="1.0" encoding="UTF-8" standalone="no"?>
<svg
   viewBox="0 0 182 47.945"
   width="728"
   height="191.78"
   version="1.1"
   id="svg56"
   xmlns="http://www.w3.org/2000/svg"
   xmlns:svg="http://www.w3.org/2000/svg">
  <defs
     id="defs60" />
  <g
     id="g54">
    <path
       fill="#d6a314"
       d="M.022.471h44.491v47.474H.022z"
       style="--darkreader-inline-fill: #b48300;"
       data-darkreader-inline-fill=""
       id="path2" />
    <path
       d="M84.253 26.697a52.213 52.213 0 01-2.781 7.466 41.159 41.159 0 01-8.981 1.32c-12.153 0-17.472-8.395-17.472-16.154 0-10.25 7.905-17.034 18.789-17.034a38.608 38.608 0 018.639 1.318c.391 2.782.684 4.734.976 7.37l-1.464.342c-1.269-5.174-4.2-7.273-9.469-7.273-8.15 0-12.495 6.882-12.495 14.3 0 9.127 5.369 15.374 12.788 15.374 4.978 0 7.614-2.684 10.054-7.565z"
       fill="#002f4b"
       style="fill:#feffff;fill-opacity:1"
       data-darkreader-inline-fill=""
       id="path4" />
    <path
       d="M94.254 18.009c1.465-2.441 3.564-5.174 5.907-5.174a2.715 2.715 0 012.83 2.441 2.741 2.741 0 01-1.562 2.392 1.132 1.132 0 01-1.318-.1 2.625 2.625 0 00-2.05-1.024c-1.269 0-2.83 1.465-3.9 4.2v8.931c0 3.222.245 3.515 4 3.808v1.269H86.934v-1.266c3.026-.293 3.368-.586 3.368-3.808v-10.1c0-3.22-.245-3.416-3.026-3.807v-1.085a27.627 27.627 0 006.881-2v5.32z"
       fill="#002f4b"
       style="fill:#feffff;fill-opacity:1"
       data-darkreader-inline-fill=""
       id="path6" />
    <path
       d="M120.413 35.335a3.982 3.982 0 01-2.293-.927 5.066 5.066 0 01-1.172-2.2c-1.953 1.316-4.295 3.123-5.759 3.123a5.892 5.892 0 01-5.857-5.954c0-2.392 1.269-3.905 3.954-4.832 2.928-.976 6.491-2.293 7.565-3.172v-.88c0-3.514-1.659-5.515-4.1-5.515a2.751 2.751 0 00-2.2.977 7.081 7.081 0 00-1.465 3.22 1.359 1.359 0 01-1.415 1.123 2.384 2.384 0 01-2.147-2.1c0-.732.634-1.269 1.561-1.953a21.844 21.844 0 017.322-3.416 6.368 6.368 0 014 1.319c1.707 1.415 2.2 3.415 2.2 5.953v9.078c0 2.2.878 2.928 1.708 2.928a3.714 3.714 0 001.757-.536l.488 1.269zm-3.562-12.3c-1.024.536-3.368 1.561-4.393 2.049-1.9.88-2.977 1.807-2.977 3.564a3.574 3.574 0 003.465 3.758 6.979 6.979 0 003.905-1.757z"
       fill="#002f4b"
       style="fill:#feffff;fill-opacity:1"
       data-darkreader-inline-fill=""
       id="path8" />
    <path
       d="M136.223 13.323a5.166 5.166 0 012-.488c5.223 0 9.615 4.491 9.615 10.25a12.132 12.132 0 01-12.25 12.25 17.034 17.034 0 01-7.174-1.757V6.442c0-3.026-.1-3.319-3.222-3.612V1.708A39.677 39.677 0 00132.269 0v15.033zm-3.952 15.764a3.9 3.9 0 00.292 1.659 4.591 4.591 0 004.345 2.734c4.05 0 6.638-3.465 6.638-9.127 0-5.564-3.416-8.785-7.468-8.785a8.118 8.118 0 00-3.807.927z"
       fill="#002f4b"
       style="fill:#feffff;fill-opacity:1"
       data-darkreader-inline-fill=""
       id="path10" />
    <path
       d="M168.923 30.601c-3.076 3.855-6.443 4.734-7.955 4.734-6 0-9.518-4.881-9.518-10.4a12.566 12.566 0 013.222-8.541 9.912 9.912 0 017.174-3.564 7.557 7.557 0 017.32 7.419c0 .976-.243 1.366-1.122 1.562-.831.146-6.931.634-12.739.83.049 6.638 3.855 9.37 7.273 9.37a7.973 7.973 0 005.564-2.441zm-13.373-9.956c2.732 0 5.418-.049 8.247-.147.878 0 1.172-.292 1.172-.976.049-2.538-1.611-4.88-4.295-4.88-2.244 0-4.392 2.05-5.124 6.003z"
       fill="#002f4b"
       style="fill:#feffff;fill-opacity:1"
       data-darkreader-inline-fill=""
       id="path12" />
    <path
       d="M171.116 34.75v-1.269c3.074-.293 3.514-.586 3.514-3.808V6.587c0-3.318-.293-3.465-3.368-3.708V1.708A37.6 37.6 0 00178.485 0v29.673c0 3.222.391 3.515 3.515 3.808v1.269z"
       fill="#002f4b"
       style="fill:#feffff;fill-opacity:1"
       data-darkreader-inline-fill=""
       id="path14" />
    <g
       fill="#002f4b"
       style="fill:#ffffff;fill-opacity:1"
       data-darkreader-inline-fill=""
       id="g50">
      <path
         d="M70.057 46.34v.874a4.149 4.149 0 01-2.018.477 3.116 3.116 0 01-1.577-.374 2.751 2.751 0 01-1.024-1.028 2.794 2.794 0 01-.377-1.418 2.709 2.709 0 01.864-2.038 2.968 2.968 0 012.131-.826 5.005 5.005 0 011.942.457v.854a3.827 3.827 0 00-1.9-.557 2.2 2.2 0 00-1.582.6 2 2 0 00-.63 1.507 1.977 1.977 0 00.62 1.5 2.206 2.206 0 001.584.588 3.591 3.591 0 001.967-.616z"
         id="path16"
         style="fill:#ffffff;fill-opacity:1" />
      <path
         d="M74.433 42.047h.558l2.488 5.581h-.814l-.739-1.645h-2.368l-.693 1.645h-.816zm1.166 3.23l-.894-2.01-.83 2.009z"
         id="path18"
         style="fill:#ffffff;fill-opacity:1" />
      <path
         d="M79.669 47.626v-5.554h1.759a1.814 1.814 0 011.266.428 1.482 1.482 0 01.473 1.153 1.55 1.55 0 01-.242.858 1.394 1.394 0 01-.664.542 3.38 3.38 0 01-1.207.169h-.588v2.404zm1.62-4.85h-.822v1.735h.869a1.1 1.1 0 00.747-.228.818.818 0 00.262-.653q.001-.851-1.059-.851z"
         id="path20"
         style="fill:#ffffff;fill-opacity:1" />
      <path
         d="M85.494 42.08h.795v5.548h-.795z"
         id="path22"
         style="fill:#ffffff;fill-opacity:1" />
      <path
         d="M88.673 42.072h4.635v.707h-1.935v4.847h-.8v-4.85h-1.9z"
         id="path24"
         style="fill:#ffffff;fill-opacity:1" />
      <path
         d="M97.457 42.047h.558l2.487 5.581h-.811l-.739-1.645h-2.37l-.691 1.645h-.816zm1.166 3.23l-.895-2.009-.831 2.009z"
         id="path26"
         style="fill:#ffffff;fill-opacity:1" />
      <path
         d="M102.737 42.08h.795v4.826h2.5v.722h-3.295z"
         id="path28"
         style="fill:#ffffff;fill-opacity:1" />
      <path
         d="M116.65 42.08h.743v5.548h-.8v-4.317l-1.705 2.145h-.147l-1.726-2.145v4.317h-.793V42.08h.751l1.845 2.278z"
         id="path30"
         style="fill:#ffffff;fill-opacity:1" />
      <path
         d="M121.985 42.047h.558l2.488 5.581h-.812l-.741-1.645h-2.366l-.693 1.645h-.816zm1.168 3.23l-.895-2.009-.831 2.009z"
         id="path32"
         style="fill:#ffffff;fill-opacity:1" />
      <path
         d="M131.675 42.08h.754v5.548h-.682l-3.709-4.274v4.274h-.747V42.08h.643l3.742 4.309z"
         id="path34"
         style="fill:#ffffff;fill-opacity:1" />
      <path
         d="M137.016 42.047h.558l2.488 5.581h-.814l-.739-1.645h-2.366l-.695 1.645h-.816zm1.166 3.23l-.895-2.009-.83 2.009z"
         id="path36"
         style="fill:#ffffff;fill-opacity:1" />
      <path
         d="M145.294 44.896h1.862v2.35a5.062 5.062 0 01-2.034.446 3.016 3.016 0 01-2.2-.805 2.659 2.659 0 01-.824-1.984 2.762 2.762 0 01.854-2.069 2.957 2.957 0 012.141-.826 3.783 3.783 0 01.889.1 7.357 7.357 0 011.065.372v.809a3.906 3.906 0 00-1.97-.576 2.086 2.086 0 00-1.532.62 2.193 2.193 0 000 3.065 2.216 2.216 0 001.6.6 3.765 3.765 0 001.139-.218l.076-.024v-1.153h-1.068z"
         id="path38"
         style="fill:#ffffff;fill-opacity:1" />
      <path
         d="M149.943 42.08h3.146v.707h-2.351v1.692h2.272v.711h-2.272v1.724h2.427v.707h-3.222z"
         id="path40"
         style="fill:#ffffff;fill-opacity:1" />
      <path
         d="M160.049 42.08h.742v5.548h-.8v-4.317l-1.707 2.145h-.146l-1.726-2.145v4.317h-.795V42.08h.751l1.843 2.278z"
         id="path42"
         style="fill:#ffffff;fill-opacity:1" />
      <path
         d="M163.612 42.08h3.146v.707h-2.346v1.692h2.272v.711h-2.272v1.724h2.427v.707h-3.227z"
         id="path44"
         style="fill:#ffffff;fill-opacity:1" />
      <path
         d="M173.716 42.08h.754v5.548h-.682l-3.709-4.274v4.274h-.747V42.08h.645l3.741 4.309z"
         id="path46"
         style="fill:#ffffff;fill-opacity:1" />
      <path
         d="M176.812 42.072h4.632v.707h-1.935v4.847h-.8v-4.85h-1.9z"
         id="path48"
         style="fill:#ffffff;fill-opacity:1" />
    </g>
    <path
       d="M44.572 24.198V.449h-.122a19.3 19.3 0 00-8.287 1.931h-.008a19.868 19.868 0 00-7.978 6.666 25.3 25.3 0 00-4.905 15V24.265c.038 13.024 9.53 23.576 21.157 23.664a25.98 25.98 0 01-9.108-1.425c-7-2.731-15.942-9.284-15.942-22.474a22.736 22.736 0 014.52-14.18 24.64 24.64 0 0111.442-8.251A24.429 24.429 0 0140.953.556c.581-.049 2.212-.095 3.531-.105L0 .486v47.443l44.573.016V24.198z"
       fill="#002f4b"
       style="--darkreader-inline-fill: #00142f;"
       data-darkreader-inline-fill=""
       id="path52" />
  </g>
</svg>
