<?xml version="1.0" standalone="no"?>
<!DOCTYPE svg PUBLIC "-//W3C//DTD SVG 1.0//EN" "http://www.w3.org/TR/2001/REC-SVG-20010904/DTD/svg10.dtd">
<svg xmlns="http://www.w3.org/2000/svg" xmlns:xlink="http://www.w3.org/1999/xlink" id="body_1" width="3072" height="2304">

<g transform="matrix(16.879124 0 0 16.879124 -0 747.36536)">
	<g>
        <path d="M0.022 0.471L44.513 0.471L44.513 47.945L0.022 47.945L0.022 0.471z" stroke="none" fill="#D6A314" fill-rule="nonzero" />
        <path d="M84.253 26.697C 89.95337 2.644516 111.73899 -14.114891 136.44897 -13.456699C 161.15895 -12.7985115 182.02148 5.0968933 186.43332 29.41874C 190.84515 53.74058 177.59723 77.823425 154.69273 87.11861C 131.78824 96.41377 105.504196 88.373924 91.719 67.856C 79.566 67.856 74.247 59.461002 74.247 51.702003C 74.247 41.452003 82.152 34.668003 93.036 34.668003C 93.427 37.450005 93.72 39.402004 94.012 42.038002L94.012 42.038002L92.548004 42.38C 91.27901 37.206 88.34801 35.107002 83.079 35.107002C 74.929 35.107002 70.584 41.989002 70.584 49.407C 70.584 58.534 75.953 64.781 83.372 64.781C 88.35 64.781 90.986 62.097 93.426 57.216L93.426 57.216L84.253 26.697z" stroke="none" fill="#FEFFFF" fill-rule="nonzero" />
        <path d="M94.254 18.009C 95.718994 15.568001 97.818 12.835001 100.160995 12.835001C 100.17536 11.342415 101.39193 10.141354 102.88458 10.146142C 104.37723 10.15093 105.58607 11.359774 105.59086 12.852422C 105.59564 14.34507 104.39458 15.56164 102.90199 15.576001L102.90199 15.576001L104.034 15.576001L104.034 15.576001L104.034 15.576001C 102.765 15.576001 101.203995 17.041 100.133995 19.776001L100.133995 19.776001L100.133995 28.707C 100.133995 31.929 100.379 32.222 104.133995 32.515L104.133995 32.515L104.133995 33.784L86.934 33.784L86.934 32.518C 89.96 32.225002 90.302 31.932001 90.302 28.710001L90.302 28.710001L90.302 18.61C 90.302 15.39 90.057 15.194 87.276 14.803L87.276 14.803L87.276 13.718L87.276 14.803L87.276 13.718L87.276 19.038L94.254 18.009z" stroke="none" fill="#FEFFFF" fill-rule="nonzero" />
        <path d="M120.413 35.335C 121.704834 34.27617 123.52019 34.136105 124.95915 34.984238C 126.398125 35.83237 127.15484 37.48842 126.85419 39.131454C 126.553535 40.77449 125.25943 42.055267 123.613365 42.338882C 121.9673 42.6225 120.31918 41.848675 119.486 40.401C 117.533 41.717003 115.191 43.524002 113.727 43.524002C 113.727 41.132004 114.995995 39.619003 117.681 38.692C 120.609 37.716 124.172 36.399002 125.246 35.52L125.246 35.52L125.246 34.64C 125.246 31.126 123.587006 29.125 121.146 29.125C 123.10137 28.85521 124.90522 30.221638 125.175 32.177002C 125.44479 34.132366 124.07837 35.93621 122.123 36.206L122.123 36.206L123.482 37.565002L123.482 37.565002L125.866005 37.565002C 125.866005 36.833004 126.50001 36.296 127.427 35.612003C 121.31671 26.240238 123.274925 13.766753 131.96304 6.718195C 140.65117 -0.33036423 153.26044 0.32473183 161.17136 8.235666C 169.08229 16.146603 169.73737 28.755857 162.68881 37.443977C 155.64024 46.132095 143.16676 48.0903 133.795 41.980003C 135.502 43.395004 135.995 45.395004 135.995 47.933002L135.995 47.933002L135.995 57.011C 135.995 59.211002 136.873 59.939003 137.70299 59.939003L137.70299 59.939003L138.191 61.208004L120.413 35.335zM116.851006 23.035C 115.827 23.571 113.483 24.596 112.45801 25.084C 110.55801 25.963999 109.48101 26.890999 109.48101 28.647999C 110.727684 27.40132 112.54476 26.914436 114.24775 27.370754C 115.950745 27.82707 117.28094 29.157259 117.73725 30.860254C 118.193565 32.563248 117.70668 34.380318 116.46001 35.627z" stroke="none" fill="#FEFFFF" fill-rule="nonzero" />
        <path d="M136.223 13.323C 141.44601 13.323 145.83801 17.814 145.83801 23.573C 148.24802 18.192503 154.17722 15.323435 159.89194 16.772476C 165.60666 18.22152 169.45242 23.569155 169.00748 29.447918C 168.56255 35.32668 163.95573 40.03458 158.08801 40.607002L158.08801 40.607002L158.08801 6.442C 158.08801 3.416 157.988 3.123 154.86601 2.83L154.86601 2.83L154.86601 1.708L154.86601 2.83L154.86601 1.708L154.86601 16.741L136.223 13.323zM132.27101 29.087C 132.6557 27.169714 134.40079 25.833723 136.35204 25.9627C 138.30327 26.091677 139.85733 27.64574 139.98631 29.59698C 140.1153 31.548218 138.7793 33.293312 136.86201 33.678C 140.91202 33.678 143.50002 30.213001 143.50002 24.551003C 143.50002 18.987003 140.08401 15.766003 136.03201 15.766003z" stroke="none" fill="#FEFFFF" fill-rule="nonzero" />
        <path d="M168.923 30.601C 165.847 34.456 162.48001 35.335 160.968 35.335C 154.968 35.335 151.45 30.453999 151.45 24.935C 150.38568 19.50954 152.99257 14.025849 157.87202 11.425996C 162.7515 8.826142 168.75699 9.721023 172.66647 13.630523C 176.57597 17.540022 177.47086 23.545513 174.871 28.424973C 172.27115 33.30443 166.78746 35.911316 161.362 34.847L161.362 34.847L161.362 52.167C 161.362 53.143 161.119 53.533 160.24 53.729C 159.40901 53.875 153.309 54.363 147.501 54.559002C 147.55 61.197002 151.356 63.929 154.774 63.929L154.774 63.929L168.923 30.601zM155.55 20.645C 158.282 20.645 160.968 20.596 163.797 20.498001C 164.675 20.498001 164.969 20.206001 164.969 19.522001C 165.01799 16.984001 163.358 14.642001 160.674 14.642001C 158.43 14.642001 156.282 16.692001 155.55 20.645z" stroke="none" fill="#FEFFFF" fill-rule="nonzero" />
        <path d="M171.116 34.75L171.116 33.481C 174.19 33.188 174.63 32.895 174.63 29.672998L174.63 29.672998L174.63 6.587C 174.63 3.2689998 174.337 3.122 171.26201 2.879L171.26201 2.879L171.26201 1.708L171.26201 2.879L171.26201 1.708L171.26201 31.381C 171.26201 34.603 171.65302 34.896 174.77701 35.189L174.77701 35.189L174.77701 36.458L171.116 34.75z" stroke="none" fill="#FEFFFF" fill-rule="nonzero" />
		<g>
            <path d="M70.057 46.34L70.057 47.214C 70.52378 45.288017 72.287445 43.961014 74.26736 44.046078C 76.24728 44.131138 77.890625 45.604515 78.1905 47.56344C 78.49037 49.52236 77.36303 51.419876 75.49923 52.09333C 73.63543 52.76679 71.55556 52.028156 70.534 50.33L70.534 50.33L73.284996 53.081L73.284996 53.081L76.078995 53.081L76.078995 53.081L76.078995 54.945L76.078995 54.945L75.253 59.95L70.057 46.34L70.057 47.214L75.253 59.95L75.253 60.804C 75.294044 61.576782 75.09984 62.343853 74.696 63.004L74.696 63.004L76.696 65.004L76.696 65.004L78.673 65.004C 78.60744 65.69583 78.697815 66.39114 78.91008 66.82802C 79.122345 67.2649 79.424255 67.37697 79.70208 67.12202C 79.979904 66.867065 80.19144 66.28383 80.256996 65.591995L70.057 46.34L70.057 47.214L75.253 59.95L75.253 60.804L80.256996 65.591995L70.057 46.34z" stroke="none" fill="#FFFFFF" fill-rule="nonzero" />
            <path d="M74.433 42.047L74.991 42.047L77.479 47.628002L76.66499 47.628002L75.925995 45.983L73.558 45.983L72.865 47.628002L72.048996 47.628002L74.433 42.047zM75.599 45.277L74.705 43.267002L73.875 45.276z" stroke="none" fill="#FFFFFF" fill-rule="nonzero" />
            <path d="M79.669 47.626L79.669 42.072L81.428 42.072C 81.29474 41.293293 81.68077 40.517883 82.38245 40.154854C 83.08412 39.79182 83.94007 39.924667 84.4987 40.4833C 85.057335 41.04193 85.19018 41.897873 84.827156 42.59955C 84.46413 43.301228 83.68871 43.687263 82.91 43.553997L82.91 43.553997L82.91 44.553997L82.91 44.553997L83.91 43.889996C 83.799286 45.944805 83.43933 47.64839 83.10603 47.69506C 82.77273 47.741726 82.592285 46.113804 82.703 44.058994L82.703 44.058994L82.115005 44.058994L82.115005 46.462994L79.669 47.626zM81.289 42.776L80.467 42.776L80.467 44.511L81.336006 44.511C 81.22309 44.03242 81.44152 43.53703 81.87101 43.297604C 82.30051 43.058178 82.83673 43.13288 83.18443 43.480583C 83.532135 43.82828 83.606834 44.36451 83.36741 44.794006C 83.12798 45.2235 82.63259 45.44192 82.15401 45.329002L81.289 42.776L80.467 42.776L80.467 44.511L81.336006 44.511C 82.15468 44.76167 81.801674 44.478 81.09501 44.478z" stroke="none" fill="#FFFFFF" fill-rule="nonzero" />
            <path d="M85.494 42.08L86.289 42.08L86.289 47.628002L85.494 47.628002L85.494 42.08z" stroke="none" fill="#FFFFFF" fill-rule="nonzero" />
            <path d="M88.673 42.072L93.308 42.072L93.308 42.779L91.373 42.779L91.373 47.626L90.573 47.626L90.573 42.776L88.673 42.776L88.673 42.072z" stroke="none" fill="#FFFFFF" fill-rule="nonzero" />
            <path d="M97.457 42.047L98.015 42.047L100.502 47.628002L99.691 47.628002L98.952 45.983L96.582 45.983L95.891 47.628002L95.075 47.628002L97.457 42.047zM98.623 45.277L97.728004 43.268L96.897 45.277z" stroke="none" fill="#FFFFFF" fill-rule="nonzero" />
            <path d="M102.737 42.08L103.532 42.08L103.532 46.906002L106.032 46.906002L106.032 47.628002L102.737 47.628002L102.737 42.08z" stroke="none" fill="#FFFFFF" fill-rule="nonzero" />
            <path d="M116.65 42.08L117.393 42.08L117.393 47.628002L116.592995 47.628002L116.592995 43.311L114.88799 45.456L114.74099 45.456L113.01499 43.311L113.01499 47.628002L112.22199 47.628002L112.22199 42.08L112.97299 42.08L114.81799 44.358L116.65 42.08z" stroke="none" fill="#FFFFFF" fill-rule="nonzero" />
            <path d="M121.985 42.047L122.543 42.047L125.031 47.628002L124.219 47.628002L123.478004 45.983L121.11201 45.983L120.41901 47.628002L119.603004 47.628002L121.985 42.047zM123.153 45.277L122.258 43.268L121.427 45.277z" stroke="none" fill="#FFFFFF" fill-rule="nonzero" />
            <path d="M131.675 42.08L132.429 42.08L132.429 47.628002L131.747 47.628002L128.038 43.354004L128.038 47.628006L127.29099 47.628006L127.29099 42.08L127.93399 42.08L131.676 46.389L131.675 42.08z" stroke="none" fill="#FFFFFF" fill-rule="nonzero" />
            <path d="M137.016 42.047L137.574 42.047L140.06201 47.628002L139.24802 47.628002L138.50902 45.983L136.14302 45.983L135.44801 47.628002L134.63202 47.628002L137.016 42.047zM138.182 45.277L137.287 43.268L136.457 45.277z" stroke="none" fill="#FFFFFF" fill-rule="nonzero" />
            <path d="M145.294 44.896L147.156 44.896L147.156 47.246C 147.5517 44.779655 149.68729 42.970646 152.18513 42.985966C 154.68297 43.001286 156.79622 44.836353 157.16162 47.307365C 157.52704 49.77838 156.03534 52.146538 153.64885 52.884144C 151.26234 53.621746 148.69458 52.508263 147.602 50.261997L147.602 50.261997L150.261 52.920998L150.261 52.920998L153.023 52.920998L153.023 52.920998L165.164 52.094997C 166.47821 50.7808 168.39369 50.267544 170.18892 50.748577C 171.98416 51.229607 173.3864 52.631844 173.86742 54.42708C 174.34845 56.22231 173.83519 58.1378 172.521 59.451996L145.294 44.896L147.156 44.896L147.156 47.246L172.521 59.451996L172.521 60.260994C 172.5293 60.996696 172.32964 61.719784 171.94499 62.346992L171.94499 62.346992L174.13799 64.53999L174.13799 64.53999L174.13799 66.13999L145.294 44.896L147.156 44.896L147.156 47.246L172.521 59.451996L172.521 60.260994L174.21399 66.11599L174.21399 64.96299L173.146 64.96299L145.294 44.896z" stroke="none" fill="#FFFFFF" fill-rule="nonzero" />
            <path d="M149.943 42.08L153.08899 42.08L153.08899 42.787003L150.73799 42.787003L150.73799 44.479004L153.01 44.479004L153.01 45.190002L150.73799 45.190002L150.73799 46.914L153.165 46.914L153.165 47.621002L149.943 47.621002L149.943 42.08z" stroke="none" fill="#FFFFFF" fill-rule="nonzero" />
            <path d="M160.049 42.08L160.791 42.08L160.791 47.628002L159.991 47.628002L159.991 43.311L158.284 45.456L158.138 45.456L156.412 43.311L156.412 47.628002L155.617 47.628002L155.617 42.08L156.36801 42.08L158.21101 44.358L160.049 42.08z" stroke="none" fill="#FFFFFF" fill-rule="nonzero" />
            <path d="M163.612 42.08L166.758 42.08L166.758 42.787003L164.412 42.787003L164.412 44.479004L166.684 44.479004L166.684 45.190002L164.412 45.190002L164.412 46.914L166.839 46.914L166.839 47.621002L163.612 47.621002L163.612 42.08z" stroke="none" fill="#FFFFFF" fill-rule="nonzero" />
            <path d="M173.716 42.08L174.47 42.08L174.47 47.628002L173.788 47.628002L170.079 43.354004L170.079 47.628006L169.332 47.628006L169.332 42.08L169.977 42.08L173.718 46.389L173.716 42.08z" stroke="none" fill="#FFFFFF" fill-rule="nonzero" />
            <path d="M176.812 42.072L181.444 42.072L181.444 42.779L179.509 42.779L179.509 47.626L178.709 47.626L178.709 42.776L176.809 42.776L176.812 42.072z" stroke="none" fill="#FFFFFF" fill-rule="nonzero" />
		</g>
        <path d="M44.572 24.198L44.572 0.449L44.449997 0.449L44.572 24.198L44.572 0.449L44.449997 0.449L44.441998 0.449C 52.68686 6.0225706 55.536064 16.836386 51.107998 25.748999L44.572 24.198L44.572 0.449L44.449997 0.449L44.441998 0.449L51.107998 25.748999L51.107998 24.265C 51.145996 37.289 60.637997 47.841 72.265 47.929C 65.265 45.198 56.322998 38.645 56.322998 25.455C 57.37761 13.460563 67.6006 4.3681583 79.63617 4.7200966C 91.67174 5.072035 101.34596 14.746264 101.6979 26.781832C 102.049835 38.817398 92.957436 49.040394 80.963 50.095C 81.544 50.046 83.174995 50 84.493996 49.99L84.493996 49.99L0 0.486L0 47.929L44.573 47.945L44.573 24.198L44.572 24.198z" stroke="none" fill="#002F4B" fill-rule="nonzero" />
	</g>
</g>
</svg>